# xmcd
#
# Track frame offsets: 
#        150
#        10312
#        20998
#        30812
#        41294
#        51451
#        60495
#        67684
#        79510
#
# Disc length: 1186 seconds
#
# Revision: 0
# Processed by: cddbd v1.5.2PL0 Copyright (c) Steve Scherf et al.
# Submitted via: ExactAudioCopy v1.0b1
#
DISCID=6204a009
DTITLE=Porter Wagoner - Howdy Neighbor, Howdy
DYEAR=1970
DGENRE=Country
TTITLE0=Howdy Neighbor Houdy
TTITLE1=I Wonder How The Old Folks Are At Home
TTITLE2=Blue Moon Of Kentucky
TTITLE3=Cotton Fields
TTITLE4=A Gathering In The Sky
TTITLE5=Country Music Has Gone To Town
TTITLE6=Head Over Heels In Love With You
TTITLE7=Before I Met You
TTITLE8=Little Cabin Home On The Hill
EXTD=
EXTT0=
EXTT1=
EXTT2=
EXTT3=
EXTT4=
EXTT5=
EXTT6=
EXTT7=
EXTT8=
PLAYORDER=
